88      a8P          db         88888888ba   88  888b      88         db         
88    ,88'          d88b        88      "8b  ""  8888b     88        d88b        
88  ,88"           d8'`8b       88      ,8P      88 `8b    88       d8'`8b       
88,d88'           d8'  `8b      88aaaaaa8P'  88  88  `8b   88      d8'  `8b      
8888"88,         d8YaaaaY8b     88""""88'    88  88   `8b  88     d8YaaaaY8b     
88P   Y8b       d8""""""""8b    88    `8b    88  88    `8b 88    d8""""""""8b    
88     "88,    d8'        `8b   88     `8b   88  88     `8888   d8'        `8b   
88       Y8b  d8'          `8b  88      `8b  88  88      `888  d8'          `8b  
-------------------------------------------------------------------------------
                    -------------------------------------
                 [ Destino.2003.DVDRip.x264.AC3-KARiNA.mkv ]            
                    -------------------------------------

[Synopsis]==================================                                                                

         Destino | France / USA | 2003 | Directed by Dominique Monfery
                                  
Destino (the Spanish, Portuguese and Italian word for "destiny") was storyboarded by Disney studio artist John Hench and artist Salvador Dalí for eight months in late 1945 and 1946; however, financial concerns caused Disney to cease production. The Walt Disney Company, then Walt Disney Studios, was plagued by many financial woes in the World War II era. Hench compiled a short animation test of about 18 seconds in the hopes of rekindling Disney's interest in the project, but the production was no longer deemed financially viable and put on indefinite hiatus.

In 1999, Walt Disney's nephew Roy Edward Disney, while working on Fantasia 2000, unearthed the dormant project and decided to bring it back to life. Disney Studios France, the company's small Parisian production department, was brought on board to complete the project. The short was produced by Baker Bloodworth and directed by French animator Dominique Monfrey in his first directorial role. A team of approximately 25 animators deciphered Dalí and Hench's cryptic storyboards (with a little help from the journals of Dalí's wife Gala Dalí and guidance from Hench himself), and finished Destino's production. The end result is mostly traditional animation, including Hench's original footage, but it also contains some computer animation. The 18 second original footage that is included in the finished product is the segment with the two tortoises.

Destino premiered on June 2, 2003 at the Annecy International Animated Film Festival in Annecy, France. The six-minute short follows the love story of Chronos and the ill-fated love he has for a mortal female. The story continues as the female dances through surreal scenery inspired by Dalí's paintings. There is little dialogue, but the sound track features a song by the Mexican composer Armando Dominguez.

    [ IMdB: http://www.imdb.com/title/tt0377770/ | Rating: 8.0 / 10 (492 votes) ]
                                     
[General]===================================
                                                                  
Complete name                    : Destino.2003.DVDRip.x264.AC3-KARiNA.mkv
Format                           : Matroska
File size                        : 342 MiB
Duration                         : 6mn 46s
Overall bit rate                 : 7 058 Kbps
Source                           : Unreleased NTSC DVD5

[Video]=====================================                                 

Format                           : AVC
Codec ID                         : V_MPEG4/ISO/AVC
Bit rate                         : 6 726 Kbps
Nominal bit rate                 : 8 000 Kbps
Width                            : 720 pixels
Height                           : 480 pixels
Display aspect ratio             : 16/9
Frame rate                       : 29.970 fps
Standard                         : NTSC
Resolution                       : 24 bits
Colorimetry                      : 4:2:0
Scan type                        : Progressive
Bits/(Pixel*Frame)               : 0.649
Stream size                      : 326 MiB (95%)
Writing library                  : x264 core 65

[Audio]=====================================                              

Format                           : AC-3
Codec ID                         : A_AC3
Bit rate mode                    : Constant
Bit rate                         : 192 Kbps
Channel(s)                       : 2 channels
Channel positions                : L R
Sampling rate                    : 48.0 KHz
Stream size                      : 9.31 MiB (3%)

[Chapters]==================================

00:00:00.000                     : Chapter 1
00:01:21.206                     : Chapter 2

[KARiNA]===================================